Coordinates
version=1
nRows=17
nColumns=36
inDegrees=yes

Units are S.I. units (second, meters, Newtons, ...)
If the header above contains a line with 'inDegrees', this indicates whether rotational values are in degrees (yes) or radians (no).

endheader
time	pelvis_tilt	pelvis_list	pelvis_rotation	pelvis_tx	pelvis_ty	pelvis_tz	hip_flexion_r	hip_adduction_r	hip_rotation_r	knee_angle_r	knee_angle_r_beta	ankle_angle_r	subtalar_angle_r	mtp_angle_r	hip_flexion_l	hip_adduction_l	hip_rotation_l	knee_angle_l	knee_angle_l_beta	ankle_angle_l	subtalar_angle_l	mtp_angle_l	lumbar_extension	lumbar_bending	lumbar_rotation	arm_flex_r	arm_add_r	arm_rot_r	elbow_flex_r	pro_sup_r	arm_flex_l	arm_add_l	arm_rot_l	elbow_flex_l	pro_sup_l
      1.74000000	     -3.31672189	     -1.49215595	      2.76065802	     -0.36819273	      0.86357213	     -0.56404156	     50.99386928	      0.08158894	      1.85162815	     74.91724041	      1.30755251	     31.53410248	    -10.23651930	     -7.49999825	     51.31515165	     -4.53703166	      4.50184515	     75.76934324	      1.32242451	     30.25704938	     -7.10196465	     -7.49999825	    -21.67776862	     -3.30323960	      1.28981260	     22.14942396	    -22.11043785	    -10.74922643	    103.98866573	     90.91866417	     39.38956848	    -15.62997286	     12.19137177	     71.46140062	     86.22988027
      1.75000000	     -4.18948138	     -1.43241485	      2.72780008	     -0.37002337	      0.86242415	     -0.56282058	     52.12260165	      0.07766258	      1.97143376	     75.02394601	      1.30941488	     31.73495366	    -10.04743745	     -7.49999864	     52.45045960	     -4.62612082	      4.23522070	     75.80315197	      1.32301459	     30.51952858	     -7.07270900	     -7.49999864	    -21.69457345	     -3.22881780	     -0.21803042	     28.42278227	    -22.99315969	     -4.91344198	    103.32959280	     87.28960434	     42.71269971	    -17.90812232	     14.23530937	     74.75360732	     81.16387233
      1.76000000	     -5.14838576	     -1.34786065	      2.61705647	     -0.37066215	      0.86294239	     -0.56187132	     53.20721695	      0.11120389	      2.13963825	     74.94934685	      1.30811287	     31.82523529	     -9.79659866	     -7.49999865	     53.49288432	     -4.78983095	      3.86954211	     75.62126269	      1.31984002	     30.72366347	     -6.91689069	     -7.49999865	    -21.82886719	     -3.47712436	      0.37076084	     31.73716752	    -24.99978673	     -2.56046626	    105.03726718	     87.82989930	     46.76925978	    -18.06818663	     16.23013067	     76.58237973	     81.80264322
      1.77000000	     -6.07234170	     -1.25665807	      2.50690974	     -0.37084335	      0.86296398	     -0.56164912	     54.20126677	      0.12318540	      2.29238089	     74.80629497	      1.30561615	     31.83773244	     -9.57944100	     -7.49999867	     54.42576150	     -4.95126347	      3.50342101	     75.35911762	      1.31526472	     30.87517303	     -6.72205769	     -7.49999867	    -21.88670464	     -3.63004976	      0.83358306	     35.02550426	    -26.84442893	     -0.12746022	    106.47536051	     87.86851454	     50.27471954	    -18.52908005	     17.97222486	     78.30605750	     82.06068832
      1.78000000	     -6.92961798	     -1.19800791	      2.42268166	     -0.37196726	      0.86228376	     -0.56216266	     55.14238860	      0.10818085	      2.39448145	     74.66269435	      1.30310984	     31.77241115	     -9.38749438	     -7.49999892	     55.33004436	     -5.09393780	      3.18582387	     75.16137807	      1.31181352	     30.96935512	     -6.56981885	     -7.49999892	    -21.95254130	     -3.25580487	     -0.45110633	     40.56219366	    -27.09743940	      5.05001395	    105.97903540	     83.34545656	     52.03333247	    -20.97624827	     17.77845590	     81.50136140	     78.54735602
      1.79000000	     -7.94820634	     -1.07019809	      2.28729017	     -0.37436824	      0.86206907	     -0.56259173	     56.27377550	      0.06801613	      2.57868605	     74.51676668	      1.30056293	     31.62059801	     -9.18742660	     -7.49999893	     56.36551581	     -5.21516791	      2.78927189	     74.94041288	      1.30795695	     31.01204809	     -6.40990882	     -7.49999893	    -22.09342952	     -3.42737542	      0.21813652	     43.50194041	    -28.66630220	      6.38453244	    107.27659142	     83.74030771	     55.03766724	    -21.32148271	     18.56049310	     82.93816732	     78.99751703
      1.80000000	     -8.94212956	     -0.95489251	      2.22092827	     -0.37761485	      0.86277903	     -0.56281124	     57.35004454	     -0.01751961	      2.72479111	     74.28902881	      1.29658815	     31.39897342	     -9.00406472	     -7.49999895	     57.37711010	     -5.27262435	      2.45309522	     74.66191127	      1.30309618	     30.96385205	     -6.29510668	     -7.49999895	    -22.30388393	     -3.50091970	      0.72019408	     46.32592148	    -30.04290082	      7.63337081	    108.25297420	     83.77687754	     57.60641256	    -21.94269548	     19.16519543	     84.26072136	     79.21959638
      1.81000000	     -9.80279884	     -0.90298569	      2.21546180	     -0.38058549	      0.86365478	     -0.56301763	     58.25041106	     -0.14599208	      2.73556067	     73.97457362	      1.29109987	     31.13538191	     -8.83929540	     -7.49999909	     58.25539879	     -5.28841317	      2.23587321	     74.30391750	      1.29684801	     30.87481175	     -6.18928440	     -7.49999909	    -22.57824724	     -3.09757789	     -0.06477623	     50.32050264	    -30.02055260	     10.74931134	    107.89111662	     81.22822905	     58.45619927	    -24.24889271	     18.23752447	     86.91068690	     78.35565639
      1.82000000	    -10.76004640	     -0.79479604	      2.14869239	     -0.38210712	      0.86390495	     -0.56333445	     59.22661515	     -0.25712975	      2.83598237	     73.63838829	      1.28523233	     30.86263002	     -8.61465295	     -7.49999911	     59.17275543	     -5.30268018	      1.93712732	     73.90250262	      1.28984200	     30.77603698	     -6.05255507	     -7.49999911	    -22.71374522	     -3.15095779	      0.52230120	     51.86891469	    -31.26098516	     11.12740572	    109.01389752	     81.08794636	     59.65945434	    -24.95477647	     18.14517287	     88.64404619	     78.41167808
      1.83000000	    -11.63083144	     -0.71358885	      2.08612896	     -0.38222205	      0.86380556	     -0.56385364	     60.04657429	     -0.35213566	      2.90325444	     73.26804738	      1.27876866	     30.64618296	     -8.42595501	     -7.49999914	     59.94666111	     -5.31153575	      1.67043384	     73.51067192	      1.28300326	     30.72756643	     -5.98131999	     -7.49999914	    -22.88121862	     -3.15216642	      0.96137127	     53.07446657	    -32.37678476	     11.41717727	    110.18024403	     80.59721044	     60.22468920	    -25.84698242	     17.76636467	     90.60906560	     78.28186744
      1.84000000	    -12.51031339	     -0.63699845	      2.01551680	     -0.38145438	      0.86288167	     -0.56414838	     60.86888224	     -0.42952390	      2.98026357	     72.97442545	      1.27364399	     30.46353734	     -8.27127105	     -7.49999923	     60.69352424	     -5.30026674	      1.44235361	     73.16567859	      1.27698199	     30.67507712	     -5.97191165	     -7.49999923	    -22.95899993	     -2.95920877	      0.84871486	     54.33336274	    -32.56340928	     12.04485684	    110.93838372	     79.02446422	     59.67713588	    -27.36883096	     16.12462987	     93.29351593	     78.34970351
      1.85000000	    -13.21668265	     -0.55607002	      1.89379218	     -0.38059954	      0.86136440	     -0.56388764	     61.53948529	     -0.44660044	      3.06393865	     72.77002104	      1.27007646	     30.38524072	     -8.08238067	     -7.49999923	     61.27953986	     -5.36346820	      1.16607680	     72.92568780	      1.27279336	     30.70905269	     -5.89473213	     -7.49999923	    -23.10035203	     -2.99568272	      1.33921967	     54.70113152	    -33.51067226	     11.89901731	    112.04645767	     78.89189417	     59.51718085	    -28.26627284	     15.60193261	     95.06802079	     78.45631501
      1.86000000	    -14.01153536	     -0.50091239	      1.82176420	     -0.38013451	      0.85939287	     -0.56346134	     62.36263897	     -0.48637526	      3.10199588	     72.68669427	      1.26862214	     30.30403683	     -8.00656033	     -7.49999935	     62.03951246	     -5.39232836	      0.95889769	     72.79861131	      1.27057546	     30.66294607	     -5.95501788	     -7.49999935	    -23.15247056	     -2.93146446	      1.33594167	     54.73358281	    -33.69490884	     11.60797876	    113.07099782	     76.46929567	     58.21890336	    -29.50353084	     13.96887393	     97.65351148	     76.70691916
      1.87000000	    -14.77629273	     -0.46015208	      1.78111690	     -0.38047899	      0.85736740	     -0.56317163	     63.23501177	     -0.54039726	      3.11488994	     72.73262815	      1.26942383	     30.24481448	     -7.91152525	     -7.49999940	     62.85744843	     -5.41380982	      0.80662517	     72.79083816	      1.27043979	     30.63886846	     -5.97959479	     -7.49999940	    -23.19630710	     -2.80419840	      1.21741967	     54.60963965	    -33.70249671	     11.46726440	    113.81460541	     76.71774321	     56.54164759	    -30.72481980	     12.02850904	     99.86397679	     78.20773600
      1.88000000	    -15.39777928	     -0.40559276	      1.73116716	     -0.38105551	      0.85548996	     -0.56321287	     63.95682686	     -0.59220975	      3.13795740	     72.76964601	      1.27006992	     30.32010306	     -7.67246553	     -7.49999941	     63.54558906	     -5.45941766	      0.64034918	     72.81337577	      1.27083315	     30.74266584	     -5.83355410	     -7.49999941	    -23.49950878	     -2.84210326	      1.48654216	     53.86177192	    -34.31852654	     10.84242800	    114.94466055	     76.77402270	     55.23908556	    -31.62156446	     11.04281897	    101.56877361	     78.49542925
      1.89000000	    -16.19370209	     -0.40215242	      1.71881066	     -0.38079493	      0.85270843	     -0.56371226	     64.88267719	     -0.64023028	      3.12386576	     72.89704568	      1.27229346	     30.33924801	     -7.65381851	     -7.49999943	     64.46922476	     -5.46879012	      0.57488360	     72.91355706	      1.27258164	     30.80038114	     -5.91026958	     -7.49999943	    -23.57224424	     -2.77401188	      1.48027912	     52.59104245	    -34.15713076	      9.63315268	    115.92349339	     76.54429110	     52.90966463	    -32.27115719	      8.76883031	    103.44951977	     78.77416749
      1.90000000	    -16.81560711	     -0.39308143	      1.67834648	     -0.37998311	      0.84989023	     -0.56418794	     65.64196590	     -0.67252781	      3.11965322	     73.09269118	      1.27570812	     30.42967593	     -7.55555611	     -7.49999951	     65.22852541	     -5.50194679	      0.49111465	     73.08962090	      1.27565453	     30.97169835	     -5.88121958	     -7.49999951	    -23.80875648	     -2.50095609	      0.75293587	     52.20300907	    -33.34545261	     10.06856747	    116.14355183	     77.03131585	     49.59830540	    -33.71240218	      5.60275511	    105.56283125	     80.98022542
